<svg width="408" height="720" viewBox="0 0 408 720" fill="none" xmlns="http://www.w3.org/2000/svg">
<g filter="url(#filter0_d_4_11)">
<path d="M280.492 327.41H104.122C103.352 327.41 102.59 327.577 101.88 327.9C101.17 328.224 100.526 328.698 99.9865 329.295C99.4467 329.891 99.0215 330.599 98.7358 331.376C98.4501 332.153 98.3096 332.984 98.3224 333.821L99.3577 401.349C97.3182 405.538 91.6037 417.925 85.7745 436.458C79.2284 457.272 71.3083 490.132 70.7479 528.48C70.004 579.435 79.3835 638.733 84.9879 674.162C87.379 689.28 89.2677 701.219 89.2677 705.439C89.2677 707.108 89.8758 708.708 90.959 709.89C92.0422 711.072 93.5121 711.739 95.0468 711.745L159.973 712H159.994C161.008 712 162.005 711.711 162.884 711.162C163.763 710.613 164.494 709.822 165.005 708.87C175.447 689.392 183.721 660.095 189.596 621.794C190.6 615.22 191.503 608.628 192.304 602.021C193.105 608.628 194.008 615.22 195.012 621.794C200.887 660.095 209.161 689.392 219.603 708.87C220.114 709.822 220.845 710.612 221.724 711.162C222.603 711.711 223.6 712 224.614 712H224.635L289.561 711.745C291.096 711.739 292.566 711.072 293.649 709.89C294.732 708.708 295.34 707.108 295.34 705.439C295.34 701.219 297.229 689.279 299.62 674.162C302.404 656.561 306.218 632.454 309.152 606.986C312.648 576.644 314.188 550.965 313.859 528.48C313.3 490.132 305.379 457.272 298.833 436.458C293.004 417.925 287.289 405.538 285.25 401.349L286.282 333.983C286.316 333.133 286.192 332.285 285.916 331.489C285.64 330.693 285.219 329.966 284.678 329.352C284.137 328.738 283.487 328.249 282.768 327.916C282.048 327.582 281.274 327.41 280.492 327.41Z" fill="#484F69"/>
<path d="M118.418 373.168C133.37 372.765 167.217 375.937 187.281 409.761V478.404C187.281 478.404 169.274 516.492 134.8 501.005C105.902 488.023 108.681 407.396 110.336 381.655C110.639 376.942 114.142 373.283 118.418 373.168Z" fill="#FF004F"/>
<path d="M161.431 512.118C166.321 510.012 172.55 507.107 177.326 504.123C179.499 502.764 182.177 504.658 181.857 507.333L173.307 608.718C173.049 611.775 168.899 611.817 168.587 608.766C165.94 582.884 161.4 544.406 156.053 523.73C154.819 518.958 157.146 513.962 161.431 512.118ZM147.158 519.345L165.627 628.137C167.255 637.728 166.3 647.618 162.875 656.648L147.142 698.12C145.426 702.645 139.24 701.871 138.546 697.043C133.667 663.1 124.343 584.192 132.022 519.747C132.639 514.574 137.563 511.338 142.153 513.061C143.43 513.541 144.567 514.375 145.446 515.479C146.325 516.582 146.916 517.916 147.158 519.345ZM125.811 507.891C126.268 508.483 126.612 509.167 126.822 509.902C127.033 510.637 127.105 511.41 127.037 512.176C125.8 525.874 119.796 594.499 120.379 628.889C120.789 653.043 112.679 677.197 106.629 691.751C104.749 696.273 98.5431 695.439 97.7565 690.561C94.1882 668.446 88.09 627.91 88.5516 611.821C89.0701 593.756 108.611 533.333 116.488 509.65C117.907 505.383 123.117 504.401 125.811 507.891ZM97.1577 449.079C97.9968 446.993 100.792 447.119 101.445 449.281C105.277 461.996 113.759 491.188 113.249 498.892C112.715 506.949 94.3992 555.52 87.2669 579.986C86.56 582.412 83.2589 582.049 83.0311 579.519C80.7474 554.163 78.2964 496.002 97.1577 449.079Z" fill="#9FABCE"/>
<path d="M217.917 511.847C212.975 509.74 206.68 506.832 201.853 503.845C199.656 502.485 196.95 504.38 197.274 507.058L205.915 608.54C206.175 611.6 210.369 611.643 210.685 608.589C213.36 582.681 217.948 544.166 223.353 523.471C224.6 518.694 222.248 513.694 217.917 511.847ZM232.343 519.081L213.677 627.978C212.032 637.578 212.996 647.478 216.458 656.517L232.359 698.029C234.093 702.557 240.345 701.783 241.046 696.951C245.978 662.975 255.401 583.991 247.64 519.484C247.017 514.306 242.041 511.067 237.402 512.792C236.11 513.272 234.962 514.107 234.073 515.211C233.184 516.316 232.587 517.652 232.343 519.081ZM253.918 507.616C253.455 508.209 253.108 508.894 252.896 509.63C252.683 510.366 252.609 511.139 252.679 511.905C253.929 525.617 259.997 594.308 259.408 628.731C258.994 652.908 267.19 677.085 273.304 691.654C275.204 696.18 281.477 695.345 282.272 690.462C285.878 668.326 292.042 627.75 291.575 611.646C291.051 593.564 271.301 533.083 263.341 509.377C261.906 505.106 256.641 504.123 253.918 507.616ZM282.877 448.748C282.029 446.66 279.204 446.786 278.544 448.95C274.671 461.677 266.098 490.897 266.614 498.609C267.154 506.674 285.665 555.291 292.873 579.781C293.588 582.209 296.924 581.845 297.155 579.313C299.463 553.933 301.94 495.716 282.877 448.748Z" fill="#9FABCE"/>
<path d="M262.626 373.168C247.674 372.765 213.826 375.937 193.763 409.761V478.404C193.763 478.404 211.77 516.492 246.244 501.005C275.142 488.023 272.362 407.396 270.707 381.655C270.404 376.942 266.902 373.283 262.626 373.168Z" fill="#FF004F"/>
<g clip-path="url(#clip0_4_11)">
<path d="M193.062 379.011C151.625 379.011 104.645 352.013 102.666 350.865C102.218 350.605 101.845 350.241 101.581 349.805C101.316 349.37 101.169 348.878 101.153 348.373L100.065 315.476C100.058 315.281 100.072 315.086 100.104 314.893L106.617 276.433C108.333 266.298 105.5 256.056 98.843 248.333C94.5794 243.385 91.8239 238.954 90.1447 235.793L75.5762 253.984C76.0401 259.503 76.7251 281.495 61.7348 306.328C61.4982 306.72 61.1731 307.056 60.7836 307.309C60.3941 307.563 59.9504 307.729 59.4854 307.794C59.0206 307.86 58.5464 307.824 58.0982 307.688C57.65 307.551 57.2396 307.319 56.8979 307.007L14.3607 268.4C14.0496 268.117 13.8017 267.776 13.6322 267.398C13.4627 267.019 13.3751 266.611 13.375 266.199V235.362L13.3766 235.254C14.7785 197.309 35.4031 179.037 41.5811 174.396C40.3838 167.033 37.0136 140.058 46.5914 113.84C56.6596 86.2787 91.4514 74.4624 95.6299 73.1318L151.604 40.9337L156.901 7.28041C156.998 6.6635 157.29 6.09082 157.738 5.64115C158.186 5.19148 158.767 4.88693 159.401 4.76938L177.029 1.50284C187.617 -0.466611 198.493 -0.500659 209.095 1.40246L227.901 4.7656C228.539 4.88004 229.125 5.18364 229.577 5.63428C230.028 6.08492 230.324 6.66024 230.421 7.28041L235.718 40.9337L291.692 73.1318C295.871 74.4624 330.663 86.2787 340.731 113.84C350.395 140.294 345.84 166.537 344.358 173.436C349.985 178.993 371.326 202.533 372.748 241.026L372.75 241.134V266.2C372.75 267.019 372.406 267.802 371.797 268.37L330.458 306.977C330.117 307.295 329.706 307.533 329.256 307.675C328.806 307.818 328.329 307.859 327.86 307.797C327.391 307.735 326.943 307.57 326.549 307.315C326.156 307.06 325.827 306.723 325.588 306.328C310.598 281.496 311.283 259.504 311.747 253.984L297.178 235.793C295.499 238.954 292.744 243.385 288.48 248.333C281.824 256.056 278.991 266.299 280.706 276.432L287.219 314.893C287.252 315.085 287.266 315.281 287.259 315.476L286.171 348.373C286.154 348.883 286.003 349.381 285.733 349.819C285.463 350.258 285.083 350.623 284.627 350.881C282.599 352.03 234.481 379.011 193.062 379.011Z" fill="#484F69"/>
<path d="M188.776 13.7379V44.3601C188.776 52.7408 185.242 60.7373 179.036 66.4001L173.743 71.229L179.213 75.7039C185.268 80.6565 188.776 88.0469 188.776 95.848V222.777C188.776 225.115 185.656 225.929 184.505 223.891L142.998 165.772C141.505 163.131 140.897 160.092 141.238 157.081C142.933 142.157 143.828 94.3249 108.205 80.1742C104.589 78.7379 104.306 73.7619 107.765 71.9822L154.263 48.0538L181.343 11.3144C183.695 8.12261 188.776 9.77928 188.776 13.7379Z" fill="#9FABCE"/>
<path d="M195.95 16.0877V46.7099C195.95 55.0905 199.456 63.087 205.613 68.7498L210.864 73.5787L205.437 78.0535C199.431 83.0061 195.95 90.3966 195.95 98.1976V225.126C195.95 227.464 199.045 228.278 200.188 226.24L241.365 168.121C242.846 165.481 243.45 162.441 243.111 159.431C241.43 144.506 240.542 96.6745 275.882 82.5239C279.469 81.0876 279.75 76.1116 276.318 74.3319L230.189 50.4036L203.324 13.6643C200.99 10.4725 195.95 12.1291 195.95 16.0877Z" fill="#9FABCE"/>
<path d="M83.284 83.5456C87.9913 81.3764 93.4233 81.2149 98.3079 82.9825C106.449 85.9283 118.893 90.7315 124.918 103.207C128.831 111.311 87.3946 108.183 83.3715 138.531C82.8222 142.676 80.6075 146.445 77.206 149.025C74.4943 151.079 73.8827 151.079 55.509 167.05C52.8707 169.344 48.6469 168.097 47.8089 164.764C43.4827 147.567 37.946 104.437 83.284 83.5456Z" fill="#9FABCE"/>
<path d="M87.7634 146.288C87.7463 139.831 89.8033 133.528 93.6507 128.248C97.4981 122.969 102.946 118.973 109.243 116.813L124.39 111.615C128.017 109.947 131.612 112.437 132.483 116.226C134.894 126.717 137.895 139.847 135.203 160.461C135.024 161.836 134.448 163.134 133.541 164.208C132.635 165.281 131.434 166.087 130.076 166.533L94.2459 178.263C90.9406 179.345 87.5408 176.89 87.6806 173.52C87.797 170.709 87.7946 158.067 87.7634 146.288ZM96.0931 182.141C92.3847 182.928 89.7941 186.16 89.8612 189.829C90.0096 197.922 90.9078 211.959 94.9496 223.521C104.049 249.548 125.236 268.433 127.285 288.089C127.412 289.301 128.857 289.919 129.884 289.212L176.455 238.417C178.097 237.287 179.24 235.601 179.656 233.696C180.073 231.79 179.733 229.802 178.705 228.127L140.036 174.572C138.951 173.22 137.452 172.233 135.752 171.754C134.052 171.275 132.239 171.328 130.572 171.904C122.394 174.735 107.111 179.803 96.0931 182.141Z" fill="#FF004F"/>
<path d="M302.635 82.7623C297.928 80.5932 292.495 80.4317 287.611 82.1993C279.47 85.145 267.026 89.9482 261.001 102.423C257.095 110.511 299.568 107.845 302.728 137.635C302.948 139.73 303.605 141.759 304.659 143.602C305.713 145.444 307.143 147.061 308.861 148.355C311.452 150.301 312.377 150.594 330.409 166.267C333.047 168.561 337.271 167.314 338.109 163.981C342.435 146.784 347.972 103.654 302.635 82.7623Z" fill="#9FABCE"/>
<path d="M298.155 146.288C298.172 139.831 296.115 133.528 292.267 128.248C288.42 122.969 282.972 118.973 276.675 116.813L261.528 111.615C257.902 109.947 254.306 112.437 253.435 116.226C251.025 126.717 248.023 139.847 250.715 160.461C250.894 161.836 251.47 163.134 252.377 164.208C253.283 165.281 254.484 166.087 255.842 166.533L291.672 178.263C294.977 179.345 298.377 176.89 298.237 173.52C298.121 170.709 298.124 158.067 298.155 146.288ZM289.825 182.141C293.533 182.928 296.124 186.16 296.057 189.829C295.908 197.922 295.01 211.959 290.968 223.521C281.869 249.548 260.682 268.433 258.633 288.089C258.506 289.301 257.061 289.919 256.034 289.212L209.462 239.172C207.82 238.041 206.678 236.356 206.261 234.45C205.844 232.544 206.184 230.557 207.212 228.881L245.881 174.572C246.966 173.22 248.465 172.233 250.165 171.754C251.865 171.275 253.678 171.328 255.346 171.904C263.524 174.735 278.808 179.803 289.825 182.141Z" fill="#FF004F"/>
<path d="M196.079 243.263V357.512C196.079 360.536 199.815 362.192 202.285 360.263L215.999 349.555C224.298 343.076 234.735 339.53 245.508 339.53C250.235 339.53 254.143 336.057 254.423 331.608L256.385 300.376C256.618 296.67 254.816 293.111 251.612 290.952L202.071 240.356C199.563 238.665 196.079 240.356 196.079 243.263Z" fill="#FF004F"/>
<path d="M270.87 271.014C270.87 271.014 260.095 306.47 256.216 340.366C255.917 342.977 258.999 345.076 262.241 345.289L270.564 345.963C272.234 346.073 273.893 345.664 275.202 344.82C276.511 343.976 277.371 342.761 277.606 341.422L279.375 331.331C280.942 322.401 280.419 313.313 277.833 304.539L270.87 271.014Z" fill="#9FABCE"/>
<path d="M190.908 241.696V355.945C190.908 358.969 187.172 360.626 184.702 358.697L170.988 347.989C162.689 341.509 152.252 337.963 141.479 337.963C136.752 337.963 132.844 334.49 132.564 330.041L130.601 298.809C130.368 295.103 132.171 291.544 135.375 289.386L184.915 238.789C187.424 237.099 190.908 238.789 190.908 241.696Z" fill="#FF004F"/>
<path d="M61.1715 181.969C57.0863 191.024 51.4012 205.462 49.8957 218.504C49.2277 224.293 47.0285 229.798 43.3269 234.291C41.0504 237.054 38.7488 240.975 37.5207 246.312C35.8465 253.586 30.7082 260.229 26.548 264.637C24.1222 267.208 19.7988 265.752 19.4097 262.235C17.5652 245.556 17.9887 205.959 56.9387 178.448C59.3027 176.778 62.3637 179.327 61.1715 181.969ZM78.5402 165.387C80.066 163.534 83.0715 164.756 82.8801 167.151C81.9558 178.719 80.7254 201.065 83.5621 214.575C86.8332 230.154 66.8074 257.709 51.6996 268.658C48.8769 270.704 45.1301 267.791 46.3746 264.528L50.7965 252.937C54.1308 244.194 55.9535 234.93 56.009 225.57C56.0879 212.055 59.4957 188.513 78.5402 165.387Z" fill="#FF004F"/>
<path d="M324.277 174.493C328.192 184.294 333.606 199.908 334.867 213.948C335.427 220.181 337.523 226.135 341.14 231.028C343.364 234.036 345.592 238.29 346.72 244.045C348.258 251.891 353.271 259.119 357.348 263.929C359.725 266.734 364.076 265.245 364.53 261.472C366.687 243.582 367.004 201.026 328.575 170.783C326.241 168.947 323.134 171.634 324.277 174.493ZM307.22 156.371C305.729 154.353 302.701 155.614 302.848 158.191C303.555 170.637 304.368 194.671 301.279 209.138C297.717 225.821 317.224 255.78 332.124 267.809C334.908 270.057 338.709 266.992 337.526 263.465L333.322 250.932C330.151 241.48 328.502 231.493 328.622 221.435C328.797 206.91 325.83 181.555 307.22 156.371Z" fill="#FF004F"/>
<path d="M116.746 271.014C116.746 271.014 126.891 306.578 130.544 340.577C130.825 343.196 127.923 345.301 124.871 345.515L117.034 346.191C115.461 346.302 113.899 345.891 112.666 345.045C111.434 344.198 110.624 342.979 110.403 341.637L108.737 331.514C107.262 322.557 107.754 313.442 110.189 304.641L116.746 271.014Z" fill="#9FABCE"/>
</g>
</g>
<defs>
<filter id="filter0_d_4_11" x="0" y="0" width="408" height="720" filterUnits="userSpaceOnUse" color-interpolation-filters="sRGB">
<feFlood flood-opacity="0" result="BackgroundImageFix"/>
<feColorMatrix in="SourceAlpha" type="matrix" values="0 0 0 0 0 0 0 0 0 0 0 0 0 0 0 0 0 0 127 0" result="hardAlpha"/>
<feOffset dy="4"/>
<feGaussianBlur stdDeviation="2"/>
<feComposite in2="hardAlpha" operator="out"/>
<feColorMatrix type="matrix" values="0 0 0 0 0 0 0 0 0 0 0 0 0 0 0 0 0 0 0.25 0"/>
<feBlend mode="normal" in2="BackgroundImageFix" result="effect1_dropShadow_4_11"/>
<feBlend mode="normal" in="SourceGraphic" in2="effect1_dropShadow_4_11" result="shape"/>
</filter>
<clipPath id="clip0_4_11">
<rect width="400" height="401.039" fill="white" transform="translate(4)"/>
</clipPath>
</defs>
</svg>
